<svg xmlns="http://www.w3.org/2000/svg" width="58" height="58" viewBox="0 0 58 58"><defs><linearGradient id="dkava" x1="29" x2="29.71" y1="57.36" y2="0" gradientUnits="userSpaceOnUse"><stop offset="0" stop-color="#57d781"/><stop offset="1" stop-color="#25adff"/></linearGradient></defs><g><g><path fill="url(#dkava)" d="M54.852 38.211l-14.964 5.143.065.3c.48 2.199.102 4.464-1.092 6.55-1.564 2.736-4.161 5.878-10.418 5.878-4.028 0-7.611-2.096-9.127-5.339l-.131-.28-1.382.482-6.092 6.106c-.194.196-.53.312-.899.312-.368 0-.704-.116-.899-.312l-8.83-8.85a1.288 1.288 0 0 1-.002-1.805l6.093-6.095L19.865 3.145c.144-.414.496-.732.918-.83a1.287 1.287 0 0 1 1.188.343l33.366 33.444c.315.315.443.76.342 1.19a1.271 1.271 0 0 1-.827.92zM15.313 49.837L8.28 42.786l-4.5 4.511 7.033 7.051zm22.236-5.685l-15.969 5.48.195.358c1.232 2.258 3.817 3.552 6.655 3.552a9.705 9.705 0 0 0 3.254-.569c.983-.344 5.865-2.361 5.865-8.34zm14.586-7.69L21.633 5.89l-3.317 9.702 7.897 7.916c.493.502.494 1.311.002 1.804-.198.198-.543.312-.915.307-.361-.006-.7-.123-.883-.307l-7.029-7.046-1.411 4.12 2.933 2.94c.492.503.493 1.312.002 1.804-.195.196-.528.312-.894.312h-.011c-.367-.002-.701-.119-.893-.312l-2.054-2.058-5.325 15.58 7.708 7.727zM36.317 1.234a1.263 1.263 0 0 1 2.187-.836c.232.246.355.57.346.91l-.217 8.201a1.274 1.274 0 0 1-1.266 1.233h-.041a1.247 1.247 0 0 1-.88-.395 1.274 1.274 0 0 1-.346-.911zm15.551 6.715l-5.786 5.8c-.38.38-1.34.449-1.795.002a1.288 1.288 0 0 1-.003-1.805l5.784-5.797c.251-.248.58-.372.906-.372.325 0 .648.123.892.367.492.503.493 1.313.002 1.805zm5.784 13.39a1.249 1.249 0 0 1-.884.395l-8.173.218h-.045a1.26 1.26 0 0 1-1.267-1.233 1.27 1.27 0 0 1 1.23-1.307l8.182-.217a1.255 1.255 0 0 1 1.303 1.233c.01.34-.114.664-.346.911z"/></g></g></svg>