<svg xmlns="http://www.w3.org/2000/svg" width="1915" height="962" viewBox="0 0 1915 962"><g><g><g><path fill="#e6e6e6" d="M12 0h1903v962H12z"/><path fill-opacity=".65" d="M12 0h1903v962H12z"/></g><g><path fill="#3498db" d="M1448.912 533.9l-13.01-22.98h26.018zm-9.576-20.958l9.576 16.915 9.574-16.915z"/></g><g><path fill="#8eb021" d="M.487 203.94l2.054-26.326 21.576 14.541zm3.772-22.73l-1.512 19.378 17.392-8.676z"/></g><g><path fill="#e74c3c" d="M160.46 827.131c-4.637 4.637-12.181 4.637-16.818 0-4.637-4.636-4.637-12.18 0-16.818l-1.399-1.398c-5.407 5.408-5.407 14.207 0 19.615 5.408 5.407 14.207 5.407 19.615 0z"/></g><g><path fill="#ffcd02" d="M1844.666 290.31c6.242-2.009 12.955 1.435 14.964 7.677 2.009 6.242-1.436 12.956-7.678 14.964l.606 1.883c7.28-2.343 11.297-10.172 8.954-17.452-2.343-7.28-10.172-11.297-17.452-8.954z"/></g><g><path fill="#8eb021" d="M1806.768 817.313l-24.136 6.468-6.467-24.137 24.136-6.467zm-22.713 4.003l20.249-5.426-5.426-20.247-20.248 5.424z"/></g></g></g></svg>