<svg xmlns="http://www.w3.org/2000/svg" width="44" height="58" viewBox="0 0 44 58"><defs><linearGradient id="cinsa" x1="21.9" x2="22.63" y1="57.16" y2=".59" gradientUnits="userSpaceOnUse"><stop offset="0" stop-color="#57d781"/><stop offset="1" stop-color="#25adff"/></linearGradient></defs><g><g><path fill="url(#cinsa)" d="M32.094 28.608c0 .028 0 .028.028.028 5.58 4.4 8.37 10.899 7.84 18.351-.084 1.037-.95 1.766-1.953 1.766h-1.953c-.14 0-.223.168-.251.196-.056.056-.084.223-.084.336.028.14.195.308.39.308h2.567c1.116 0 2.12.728 2.427 1.821l.726 2.55c.223.784.055 1.569-.419 2.213-.474.617-1.2.98-2.009.98H17.671c-.809 0-1.534-.335-2.008-.952a2.491 2.491 0 0 1-.447-2.157l.67-2.55a2.538 2.538 0 0 1 2.455-1.877h2.901c.14 0 .223-.14.251-.168.056-.028.084-.196.084-.308-.028-.169-.195-.364-.39-.364h-2.01c-.585 0-1.143-.196-1.506-.673-.39-.448-.53-.98-.39-1.569l.613-2.69c.81-3.586.781-7.34-.028-10.926l-.502-2.214c-1.367-5.995 1.2-12.159 6.417-15.353.028 0 .056-.028.083-.028l8.314-4.259a1.57 1.57 0 0 1 1.674.14c.502.337.753.953.641 1.541l-.306 1.821c-.028.225.083.42.306.477a8.35 8.35 0 0 1 4.24 2.633l3.85 4.427c1.898 2.186 1.73 5.464-.39 7.424-1.395 1.318-3.738 1.374-5.217.113l-.028-.028a5.22 5.22 0 0 0-4.714-1.037c-.028 0-.084 0-.14.028zm-2.12-.364a2.299 2.299 0 0 1 1.646-1.793c2.343-.645 4.826-.084 6.696 1.485l.055.028c.642.532 1.73.532 2.316-.028a3.125 3.125 0 0 0 .223-4.343l-3.85-4.454c-.837-.981-1.897-1.654-3.124-1.962a2.618 2.618 0 0 1-1.925-2.97l.111-.644-7.197 3.726c-4.38 2.718-6.529 7.929-5.385 12.973l.502 2.213c.893 3.894.893 8.04.028 11.935l-.53 2.438h1.702c1.311 0 2.455.952 2.567 2.24.083.701-.168 1.373-.642 1.906-.474.533-1.172.868-1.87.868h-2.9c-.14 0-.28.057-.307.197l-.67 2.521c-.028.14.028.225.056.28a.36.36 0 0 0 .25.084H39.46c.14 0 .223-.028.251-.084.028-.055.084-.112.056-.252l-.725-2.55c-.028-.14-.168-.196-.307-.196h-2.567c-1.31 0-2.455-1.008-2.566-2.297-.084-.7.167-1.429.641-1.96.475-.533 1.172-.786 1.87-.786h1.701c.419-6.724-2.064-12.44-7.002-16.334-.67-.504-.976-1.4-.837-2.241zM14.965 45.447H3.11c-1.395 0-2.483-1.12-2.483-2.522v-1.933c0-1.009.558-1.905 1.478-2.326l1.786-.812a.319.319 0 0 0 .195-.28.351.351 0 0 0-.167-.308L1.937 36.06a2.535 2.535 0 0 1-1.172-2.634l3.236-17.203a6.656 6.656 0 0 0-.92-4.762 8.902 8.902 0 0 1-1.367-4.735V3.112C1.714 1.74 2.83.591 4.224.591c1.395 0 2.511 1.12 2.511 2.521v.869c0 .168.168.252.335.252h.279c.167 0 .474-.084.474-.252v-.869C7.823 1.74 8.94.591 10.334.591s2.51 1.12 2.51 2.521v.869c0 .196.112.336.28.336.167 0 .279-.168.279-.336v-.869c0-1.372 1.116-2.521 2.51-2.521 1.395 0 2.511 1.12 2.511 2.521v.869c0 .168.14.252.307.252h.28c.195 0 .53-.084.53-.252v-.869c0-1.372 1.115-2.521 2.51-2.521 1.395 0 2.51 1.12 2.51 2.521v3.586c0 1.682-.557 3.335-1.45 4.735-.558.84-.976 1.821-1.088 2.83-.056.617-.586 1.037-1.2.98-.585-.055-1.004-.588-.948-1.204.14-1.345.642-2.662 1.367-3.782.67-1.037 1.088-2.27 1.088-3.53V3.112c0-.196-.111-.336-.279-.336-.167 0-.279.168-.279.336v.869c0 1.4-1.367 2.493-2.762 2.493h-.279c-1.395 0-2.538-1.092-2.538-2.493v-.869c0-.196-.112-.336-.28-.336-.167 0-.278.168-.278.336v.869c0 1.372-1.116 2.522-2.511 2.522a2.506 2.506 0 0 1-2.51-2.522v-.869c0-.196-.113-.336-.28-.336-.167 0-.279.168-.279.336v.869c0 1.4-1.311 2.493-2.706 2.493H7.07c-1.395 0-2.288-1.092-2.288-2.493v-.869c0-.168-.223-.336-.39-.336-.168 0-.419.168-.419.336v3.615c0 1.26.335 2.465 1.005 3.53 1.2 1.905 1.618 4.146 1.2 6.36L2.94 33.819c-.028.14.028.253.14.336l1.98 1.206a2.525 2.525 0 0 1 1.2 2.324 2.502 2.502 0 0 1-1.479 2.158l-1.785.812c-.112.057-.167.168-.167.309v1.933c0 .196.083.28.25.28h11.885c.586 0 1.088.505 1.088 1.12 0 .617-.502 1.122-1.088 1.15z"/></g></g></svg>