<svg xmlns="http://www.w3.org/2000/svg" width="51" height="51" viewBox="0 0 51 51"><defs><linearGradient id="jkfla" x1="25.24" x2="25.05" y1="50.43" y2=".17" gradientUnits="userSpaceOnUse"><stop offset="0" stop-color="#57d781"/><stop offset="1" stop-color="#25adff"/></linearGradient></defs><g><g><path fill="url(#jkfla)" d="M12.336 36.354l16.091-16.115 1.77 1.772-16.09 16.115zm4.427 10.548l-.363.363-1.02.199-15.333 2.97L3.014 35.08l.197-1.022.363-.364 23.481-23.516 13.189 13.21zm-10.21-.28L3.855 43.92l-.647 3.35zm6.692-1.297L5.15 37.218l-.721 3.732 5.09 5.097zm23.46-21.94l-9.65-9.663L6.142 34.666l9.65 9.665zM47.512 2.898c3.636 3.642 3.636 9.568 0 13.21l-3.139 3.142L31.184 6.042l3.139-3.144c3.636-3.641 9.553-3.642 13.19 0zm.228 6.604c0-1.824-.71-3.541-1.998-4.831a6.772 6.772 0 0 0-4.825-2.002c-1.822 0-3.536.71-4.824 2.002l-1.37 1.37 9.65 9.665 1.369-1.371a6.79 6.79 0 0 0 1.998-4.833zm-19.474-.179l1.77-1.772L42.866 20.4l-1.77 1.773zM38 34.88h2.797v2.8h-2.797zm4.475 4.48h2.797v2.802h-2.797zm-4.475 4.482h2.797v2.801h-2.797zm-4.474-4.481h2.796v2.8h-2.796zm4.474 0h2.797v2.8h-2.797z"/></g></g></svg>