<svg xmlns="http://www.w3.org/2000/svg" width="62" height="51" viewBox="0 0 62 51"><defs><linearGradient id="y5j2a" x1="30.69" x2="31.24" y1="51" y2=".75" gradientUnits="userSpaceOnUse"><stop offset="0" stop-color="#57d781"/><stop offset="1" stop-color="#25adff"/></linearGradient></defs><g><g><path fill="url(#y5j2a)" d="M10.007 40.529c-5.343 0-9.72-4.321-9.768-9.671V10.455a9.684 9.684 0 0 1 2.909-6.887A9.73 9.73 0 0 1 10.017.755H48.229c5.343 0 9.724 4.32 9.77 9.67v5.937c0 .66-.536 1.196-1.2 1.196-.663 0-1.2-.535-1.2-1.196v-5.907a7.371 7.371 0 0 0-7.444-7.308H10.093c-1.995.007-3.856.742-5.26 2.123a7.309 7.309 0 0 0-2.195 5.193v19.17H36.5c.664 0 1.2.535 1.2 1.195s-.536 1.197-1.2 1.197H2.744a7.3 7.3 0 0 0 2.102 4 7.341 7.341 0 0 0 5.17 2.111c.022 0 .045 0 .066-.002h26.99a1.199 1.199 0 0 1 0 2.394h-6.754v4.399h7.215a1.198 1.198 0 1 1 0 2.394h-20.52a1.198 1.198 0 1 1 0-2.394H27.92v-4.398H10.007zm49.56 10.473H42.96c-1.17 0-2.123-.951-2.123-2.117V23.117c0-1.168.954-2.116 2.123-2.116h16.608c1.17 0 2.123.948 2.123 2.116v25.768a2.124 2.124 0 0 1-2.123 2.117zm-16.33-2.394H59.29V45.48H43.237zM59.29 23.393H43.237v1.289H59.29zM43.237 43.086H59.29V27.074H43.237z"/></g></g></svg>